<svg width="386" height="87" viewBox="0 0 386 87" fill="none" xmlns="http://www.w3.org/2000/svg">
<g filter="url(#filter0_b_450_3312)">
<path d="M349.953 87L36.047 87C24.4591 87 15.9213 78.2752 11.3997 67.707C10.0453 64.5415 8.62027 61.2107 6.89215 57.8994C2.56488 49.6078 0.401213 45.462 0.401213 43.5C0.401213 41.538 2.56488 37.3922 6.89215 29.1006C8.6203 25.7893 10.0454 22.4584 11.3997 19.293C15.9213 8.72477 24.4591 -1.69881e-05 36.047 -1.54718e-05L349.953 1.80735e-06C361.541 2.31387e-06 370.079 8.7248 374.6 19.293C375.955 22.4585 377.38 25.7893 379.108 29.1006C383.435 37.3922 385.599 41.538 385.599 43.5C385.599 45.462 383.435 49.6078 379.108 57.8994C377.38 61.2107 375.955 64.5416 374.6 67.707C370.079 78.2752 361.541 87 349.953 87Z" fill="url(#paint0_linear_450_3312)"/>
<path d="M349.953 85L36.047 85C25.6018 85 17.6063 77.129 13.2385 66.9203L13.2256 66.8901C11.8788 63.7424 10.4287 60.3531 8.66522 56.9741C6.49209 52.8101 4.89474 49.7483 3.8363 47.4803C3.30801 46.3482 2.93674 45.4616 2.7001 44.7668C2.45492 44.0469 2.40121 43.6645 2.40121 43.5C2.40121 43.3355 2.45492 42.953 2.7001 42.2331C2.93674 41.5384 3.30801 40.6517 3.8363 39.5197C4.89474 37.2517 6.49209 34.1899 8.66522 30.0259C10.4287 26.6469 11.8788 23.2576 13.2255 20.11L13.2385 20.0797C17.6063 9.871 25.6018 1.99998 36.047 1.99998L349.953 2C360.398 2 368.394 9.87103 372.762 20.0797L372.774 20.1088C374.121 23.2568 375.571 26.6465 377.335 30.0259C379.508 34.1899 381.105 37.2517 382.164 39.5197C382.692 40.6518 383.063 41.5384 383.3 42.2332C383.545 42.9531 383.599 43.3355 383.599 43.5C383.599 43.6645 383.545 44.047 383.3 44.7669C383.063 45.4616 382.692 46.3483 382.164 47.4803C381.105 49.7483 379.508 52.8101 377.335 56.9741C375.571 60.3535 374.121 63.7432 372.774 66.8911L372.762 66.9203C368.394 77.129 360.398 85 349.953 85Z" stroke="url(#paint1_linear_450_3312)" stroke-opacity="0.7" stroke-width="4"/>
</g>
<defs>
<filter id="filter0_b_450_3312" x="-29.7988" y="-30.2" width="445.598" height="147.4" filterUnits="userSpaceOnUse" color-interpolation-filters="sRGB">
<feFlood flood-opacity="0" result="BackgroundImageFix"/>
<feGaussianBlur in="BackgroundImageFix" stdDeviation="15.1"/>
<feComposite in2="SourceAlpha" operator="in" result="effect1_backgroundBlur_450_3312"/>
<feBlend mode="normal" in="SourceGraphic" in2="effect1_backgroundBlur_450_3312" result="shape"/>
</filter>
<linearGradient id="paint0_linear_450_3312" x1="283.354" y1="221.685" x2="237.5" y2="-23" gradientUnits="userSpaceOnUse">
<stop stop-color="#C68B4A"/>
<stop offset="1" stop-color="#FEE0AE"/>
</linearGradient>
<linearGradient id="paint1_linear_450_3312" x1="390" y1="43.5" x2="-3.99994" y2="43.5" gradientUnits="userSpaceOnUse">
<stop stop-color="#6A4C30"/>
<stop offset="0.1" stop-color="#9E7147" stop-opacity="0"/>
<stop offset="0.745" stop-color="#A7774B" stop-opacity="0.173469"/>
<stop offset="1" stop-color="#6A4C30"/>
</linearGradient>
</defs>
</svg>
