<svg width="27" height="27" viewBox="0 0 27 27" fill="none" xmlns="http://www.w3.org/2000/svg">
<path d="M22.6664 6.3335C22.6664 7.43807 21.7709 8.3335 20.6664 8.3335C19.5618 8.3335 18.6664 7.43807 18.6664 6.3335C18.6664 5.22893 19.5618 4.3335 20.6664 4.3335C21.7709 4.3335 22.6664 5.22893 22.6664 6.3335Z" fill="white"/>
<path fill-rule="evenodd" clip-rule="evenodd" d="M13.333 20.3335C17.0149 20.3335 19.9997 17.3487 19.9997 13.6668C19.9997 9.98493 17.0149 7.00016 13.333 7.00016C9.65113 7.00016 6.66636 9.98493 6.66636 13.6668C6.66636 17.3487 9.65113 20.3335 13.333 20.3335ZM13.333 17.6668C15.5422 17.6668 17.333 15.876 17.333 13.6668C17.333 11.4577 15.5422 9.66683 13.333 9.66683C11.1239 9.66683 9.33303 11.4577 9.33303 13.6668C9.33303 15.876 11.1239 17.6668 13.333 17.6668Z" fill="white"/>
<path fill-rule="evenodd" clip-rule="evenodd" d="M-0.000305176 13.1335C-0.000305176 8.65308 -0.000305176 6.41287 0.871643 4.70157C1.63863 3.19628 2.86247 1.97243 4.36777 1.20544C6.07906 0.333496 8.31927 0.333496 12.7997 0.333496H13.8664C18.3468 0.333496 20.587 0.333496 22.2983 1.20544C23.8036 1.97243 25.0274 3.19628 25.7944 4.70157C26.6664 6.41287 26.6664 8.65308 26.6664 13.1335V14.2002C26.6664 18.6806 26.6664 20.9208 25.7944 22.6321C25.0274 24.1374 23.8036 25.3612 22.2983 26.1282C20.587 27.0002 18.3468 27.0002 13.8664 27.0002H12.7997C8.31927 27.0002 6.07906 27.0002 4.36777 26.1282C2.86247 25.3612 1.63863 24.1374 0.871643 22.6321C-0.000305176 20.9208 -0.000305176 18.6806 -0.000305176 14.2002V13.1335ZM12.7997 3.00016H13.8664C16.1506 3.00016 17.7034 3.00224 18.9036 3.1003C20.0727 3.19582 20.6706 3.36896 21.0876 3.58146C22.0912 4.09279 22.9071 4.90868 23.4184 5.91221C23.6309 6.32928 23.804 6.92716 23.8996 8.09626C23.9976 9.2965 23.9997 10.8493 23.9997 13.1335V14.2002C23.9997 16.4844 23.9976 18.0372 23.8996 19.2374C23.804 20.4065 23.6309 21.0044 23.4184 21.4214C22.9071 22.425 22.0912 23.2409 21.0876 23.7522C20.6706 23.9647 20.0727 24.1378 18.9036 24.2334C17.7034 24.3314 16.1506 24.3335 13.8664 24.3335H12.7997C10.5155 24.3335 8.9627 24.3314 7.76246 24.2334C6.59335 24.1378 5.99548 23.9647 5.57841 23.7522C4.57488 23.2409 3.75898 22.425 3.24766 21.4214C3.03515 21.0044 2.86202 20.4065 2.7665 19.2374C2.66844 18.0372 2.66636 16.4844 2.66636 14.2002V13.1335C2.66636 10.8493 2.66844 9.2965 2.7665 8.09626C2.86202 6.92716 3.03515 6.32928 3.24766 5.91221C3.75898 4.90868 4.57488 4.09279 5.57841 3.58146C5.99548 3.36896 6.59335 3.19582 7.76246 3.1003C8.9627 3.00224 10.5155 3.00016 12.7997 3.00016Z" fill="white"/>
</svg>
