<svg width="39" height="34" viewBox="0 0 39 34" fill="none" xmlns="http://www.w3.org/2000/svg">
<g filter="url(#filter0_i_1_1195)">
<path d="M24.817 3.6417C25.454 2.55756 25.0732 1.17286 23.9664 0.548881C22.8596 -0.0750995 21.446 0.29793 20.809 1.38207L19.6979 3.27302L18.5868 1.38207C17.9498 0.29793 16.5362 -0.0750995 15.4294 0.548881C14.3227 1.17286 13.9418 2.55756 14.5789 3.6417L17.0301 7.81346L9.27685 21.0087H3.03067C1.75366 21.0087 0.718445 22.0228 0.718445 23.2736C0.718445 24.5245 1.75366 25.5386 3.03067 25.5386H24.7867C24.9774 25.0476 25.1783 24.2052 24.9647 23.4309C24.6435 22.267 23.4553 21.0087 21.4642 21.0087H14.6126L24.817 3.6417Z" fill="url(#paint0_linear_1_1195)"/>
<path d="M24.817 3.6417C25.454 2.55756 25.0732 1.17286 23.9664 0.548881C22.8596 -0.0750995 21.446 0.29793 20.809 1.38207L19.6979 3.27302L18.5868 1.38207C17.9498 0.29793 16.5362 -0.0750995 15.4294 0.548881C14.3227 1.17286 13.9418 2.55756 14.5789 3.6417L17.0301 7.81346L9.27685 21.0087H3.03067C1.75366 21.0087 0.718445 22.0228 0.718445 23.2736C0.718445 24.5245 1.75366 25.5386 3.03067 25.5386H24.7867C24.9774 25.0476 25.1783 24.2052 24.9647 23.4309C24.6435 22.267 23.4553 21.0087 21.4642 21.0087H14.6126L24.817 3.6417Z" fill="black" fill-opacity="0.6"/>
<path d="M10.4793 28.0431C10.0848 27.614 9.2009 26.9282 8.42585 26.7025C7.24407 26.3583 6.34819 26.5743 5.89618 26.7623L4.17386 29.6936C3.53684 30.7777 3.91766 32.1624 5.02444 32.7864C6.13122 33.4104 7.54484 33.0373 8.18185 31.9532L10.4793 28.0431Z" fill="url(#paint1_linear_1_1195)"/>
<path d="M10.4793 28.0431C10.0848 27.614 9.2009 26.9282 8.42585 26.7025C7.24407 26.3583 6.34819 26.5743 5.89618 26.7623L4.17386 29.6936C3.53684 30.7777 3.91766 32.1624 5.02444 32.7864C6.13122 33.4104 7.54484 33.0373 8.18185 31.9532L10.4793 28.0431Z" fill="black" fill-opacity="0.6"/>
<path d="M32.7806 25.5386H36.301C37.578 25.5386 38.6132 24.5245 38.6132 23.2736C38.6132 22.0228 37.578 21.0087 36.301 21.0087H30.119L23.1553 9.15722C22.638 9.63874 21.6462 10.8689 21.4963 12.2636C21.3036 14.0567 21.5927 15.5666 22.4597 17.0451C25.3749 22.0159 28.2946 26.9846 31.214 31.9532C31.851 33.0373 33.2646 33.4104 34.3714 32.7864C35.4782 32.1624 35.859 30.7777 35.222 29.6936L32.7806 25.5386Z" fill="url(#paint2_linear_1_1195)"/>
<path d="M32.7806 25.5386H36.301C37.578 25.5386 38.6132 24.5245 38.6132 23.2736C38.6132 22.0228 37.578 21.0087 36.301 21.0087H30.119L23.1553 9.15722C22.638 9.63874 21.6462 10.8689 21.4963 12.2636C21.3036 14.0567 21.5927 15.5666 22.4597 17.0451C25.3749 22.0159 28.2946 26.9846 31.214 31.9532C31.851 33.0373 33.2646 33.4104 34.3714 32.7864C35.4782 32.1624 35.859 30.7777 35.222 29.6936L32.7806 25.5386Z" fill="black" fill-opacity="0.6"/>
</g>
<path d="M18.4334 4.01603L19.6979 6.16815L20.9625 4.01603L22.0735 2.12508L20.8213 1.38931L22.0735 2.12507C22.2983 1.74253 22.8238 1.58842 23.2461 1.82649C23.6512 2.05489 23.7665 2.53446 23.5525 2.89869L13.348 20.2657L12.0497 22.4754H14.6126H21.4642C22.7597 22.4754 23.3954 23.2579 23.5508 23.821C23.5707 23.8932 23.5836 23.9773 23.5881 24.0719H3.03067C2.53495 24.0719 2.18511 23.6861 2.18511 23.2736C2.18511 22.8612 2.53495 22.4754 3.03067 22.4754H9.27685H10.1162L10.5414 21.7517L18.2946 8.55647L18.7312 7.81346L18.2946 7.07045L15.8434 2.89869C15.6294 2.53446 15.7446 2.05489 16.1497 1.82649C16.572 1.58842 17.0975 1.74253 17.3223 2.12507L18.4334 4.01603ZM8.01577 28.1107C8.15612 28.1515 8.35318 28.2437 8.57837 28.3832L6.91732 31.2102C6.69254 31.5927 6.16701 31.7468 5.74474 31.5088C5.33961 31.2804 5.22438 30.8008 5.43839 30.4366L6.86385 28.0106C7.14168 27.9703 7.53241 27.9699 8.01577 28.1107ZM22.9546 12.4203C22.9725 12.254 23.0123 12.082 23.0705 11.908L28.8545 21.7517L29.2797 22.4754H30.119H36.301C36.7967 22.4754 37.1465 22.8612 37.1465 23.2736C37.1465 23.6861 36.7967 24.0719 36.301 24.0719H32.7806H30.2177L31.5161 26.2816L33.9575 30.4366C34.1715 30.8008 34.0562 31.2804 33.6511 31.5088C33.2288 31.7468 32.7033 31.5927 32.4785 31.2102L32.1378 30.6302C29.3319 25.8549 26.5262 21.08 23.7249 16.3032L23.7249 16.3032C23.0323 15.1221 22.7921 13.9327 22.9546 12.4203Z" stroke="url(#paint3_linear_1_1195)" stroke-width="2.93333"/>
<defs>
<filter id="filter0_i_1_1195" x="-2.19267" y="-1.55342" width="40.8058" height="34.6421" filterUnits="userSpaceOnUse" color-interpolation-filters="sRGB">
<feFlood flood-opacity="0" result="BackgroundImageFix"/>
<feBlend mode="normal" in="SourceGraphic" in2="BackgroundImageFix" result="shape"/>
<feColorMatrix in="SourceAlpha" type="matrix" values="0 0 0 0 0 0 0 0 0 0 0 0 0 0 0 0 0 0 127 0" result="hardAlpha"/>
<feOffset dx="-2.91111" dy="-1.8"/>
<feGaussianBlur stdDeviation="2.57778"/>
<feComposite in2="hardAlpha" operator="arithmetic" k2="-1" k3="1"/>
<feColorMatrix type="matrix" values="0 0 0 0 0.980392 0 0 0 0 0.980392 0 0 0 0 0.980392 0 0 0 0.22 0"/>
<feBlend mode="normal" in2="shape" result="effect1_innerShadow_1_1195"/>
</filter>
<linearGradient id="paint0_linear_1_1195" x1="38.6132" y1="0.246582" x2="25.1974" y2="41.1228" gradientUnits="userSpaceOnUse">
<stop stop-color="#D6D3C2" stop-opacity="0.2"/>
<stop offset="1" stop-color="#5C5C5C" stop-opacity="0.14"/>
</linearGradient>
<linearGradient id="paint1_linear_1_1195" x1="38.6132" y1="0.246582" x2="25.1974" y2="41.1228" gradientUnits="userSpaceOnUse">
<stop stop-color="#D6D3C2" stop-opacity="0.2"/>
<stop offset="1" stop-color="#5C5C5C" stop-opacity="0.14"/>
</linearGradient>
<linearGradient id="paint2_linear_1_1195" x1="38.6132" y1="0.246582" x2="25.1974" y2="41.1228" gradientUnits="userSpaceOnUse">
<stop stop-color="#D6D3C2" stop-opacity="0.2"/>
<stop offset="1" stop-color="#5C5C5C" stop-opacity="0.14"/>
</linearGradient>
<linearGradient id="paint3_linear_1_1195" x1="38.6132" y1="0.246582" x2="25.0577" y2="57.1178" gradientUnits="userSpaceOnUse">
<stop stop-color="#999999"/>
<stop offset="1" stop-color="#141414"/>
</linearGradient>
</defs>
</svg>
