<svg width="26" height="26" viewBox="0 0 26 26" fill="none" xmlns="http://www.w3.org/2000/svg">
<path d="M11.5926 2.15746V11.5836H2.16642C1.38417 11.5836 0.750031 12.2177 0.750031 13C0.750031 13.7823 1.38417 14.4164 2.16642 14.4164H11.5926V23.8425C11.5926 24.6199 12.2227 25.25 13 25.25C13.7773 25.25 14.4075 24.6199 14.4075 23.8425V14.4164H23.8336C24.6159 14.4164 25.25 13.7823 25.25 13C25.25 12.2177 24.6159 11.5836 23.8336 11.5836H14.4075V2.15746C14.4075 1.38014 13.7773 0.75 13 0.75C12.2227 0.75 11.5926 1.38014 11.5926 2.15746Z" fill="#161614" stroke="black" stroke-width="0.5"/>
</svg>
