<svg width="38" height="31" viewBox="0 0 38 31" fill="none" xmlns="http://www.w3.org/2000/svg">
<path d="M12.3847 30.6672C8.07137 30.6672 4.05061 29.4126 0.666382 27.248C3.53971 27.4339 8.61047 26.9886 11.7645 23.9802C7.01982 23.7625 4.88006 20.1235 4.60097 18.5684C5.00411 18.7239 6.92678 18.9106 8.01217 18.4751C2.55425 17.1066 1.71695 12.3169 1.90302 10.8551C2.92638 11.5705 4.66299 11.8193 5.34523 11.7571C0.259439 8.11813 2.08908 2.64417 2.9884 1.46229C6.63815 6.51871 12.108 9.35858 18.8749 9.51654C18.7473 8.95696 18.6799 8.37438 18.6799 7.77601C18.6799 3.48171 22.1509 0.000488281 26.4326 0.000488281C28.6698 0.000488281 30.6856 0.950827 32.1006 2.47094C33.5956 2.12063 35.8455 1.30058 36.9453 0.591428C36.3909 2.58196 34.665 4.24248 33.6209 4.85792C33.6124 4.83689 33.6296 4.87886 33.6209 4.85792C34.538 4.7192 37.0194 4.24231 37.9997 3.57723C37.5149 4.69549 35.685 6.55479 34.1833 7.59572C34.4627 19.9179 25.035 30.6672 12.3847 30.6672Z" fill="white"/>
</svg>
