<svg width="178" height="22" viewBox="0 0 178 22" fill="none" xmlns="http://www.w3.org/2000/svg">
<path d="M0.107422 21V19.2773L2.33594 18.8945V3.21289L0.107422 2.83008V1.09375H2.33594H8.69336C10.7715 1.09375 12.3939 1.54492 13.5605 2.44727C14.7363 3.34049 15.3242 4.6849 15.3242 6.48047C15.3242 7.36458 15.0417 8.15755 14.4766 8.85938C13.9206 9.55208 13.1823 10.0671 12.2617 10.4043C13.0638 10.5684 13.752 10.8919 14.3262 11.375C14.9004 11.849 15.3424 12.4323 15.6523 13.125C15.9714 13.8086 16.1309 14.5605 16.1309 15.3809C16.1309 17.2038 15.5384 18.5983 14.3535 19.5645C13.1686 20.5215 11.5645 21 9.54102 21H0.107422ZM5.0293 18.8945H9.54102C10.7715 18.8945 11.724 18.5938 12.3984 17.9922C13.082 17.3815 13.4238 16.5202 13.4238 15.4082C13.4238 14.6243 13.2962 13.9544 13.041 13.3984C12.7949 12.8424 12.4121 12.4141 11.8926 12.1133C11.3822 11.8125 10.735 11.6621 9.95117 11.6621H5.0293V18.8945ZM5.0293 9.55664H9.39062C10.3568 9.55664 11.1361 9.27865 11.7285 8.72266C12.3301 8.15755 12.6309 7.39193 12.6309 6.42578C12.6309 5.35026 12.2936 4.54818 11.6191 4.01953C10.9447 3.48177 9.9694 3.21289 8.69336 3.21289H5.0293V9.55664ZM20.8312 21V19.2773L22.3078 19.0723L29.2668 1.09375H31.5773L38.4133 19.0723L39.8762 19.2773V21H34.1613V19.2773L35.6652 19.0176L34.3527 15.3535H26.382L25.0285 19.0176L26.5324 19.2773V21H20.8312ZM27.216 13.0977H33.5324L30.6066 5.00391L30.4426 4.55273H30.3605L30.1965 5.00391L27.216 13.0977ZM44.7816 21V19.2773L47.0102 18.8945V3.21289L44.7816 2.83008V1.09375H47.0102H49.7309L59.4926 16.6113L59.5746 16.584V3.21289L57.1273 2.83008V1.09375H62.0492H64.2777V2.83008L62.0492 3.21289V21H59.5883L49.5668 5.40039L49.4848 5.42773V18.8945L51.932 19.2773V21H44.7816ZM74.0504 15.2441L72.6148 13.5762L82.0621 3.08984L82.1168 3.02148L80.6266 2.83008V1.09375H87.0113V2.83008L85.1383 3.17188L74.0504 15.2441ZM69.3199 21V19.2773L71.5484 18.8945V3.21289L69.3199 2.83008V1.09375H76.4703V2.83008L74.2418 3.21289V18.8945L76.4703 19.2773V21H69.3199ZM81.0777 21V19.2773L82.7184 19.0859L82.7047 19.0723L77.1949 11.4297L78.6988 9.31055L85.8902 18.9355L87.7223 19.2773V21H81.0777Z" fill="white" fill-opacity="0.6"/>
<path d="M97.3855 15.2441L95.95 13.5762L105.397 3.08984L105.452 3.02148L103.962 2.83008V1.09375H110.346V2.83008L108.473 3.17188L97.3855 15.2441ZM92.6551 21V19.2773L94.8836 18.8945V3.21289L92.6551 2.83008V1.09375H99.8055V2.83008L97.577 3.21289V18.8945L99.8055 19.2773V21H92.6551ZM104.413 21V19.2773L106.054 19.0859L106.04 19.0723L100.53 11.4297L102.034 9.31055L109.225 18.9355L111.057 19.2773V21H104.413ZM115.84 21V19.2773L117.316 19.0723L124.275 1.09375H126.586L133.422 19.0723L134.885 19.2773V21H129.17V19.2773L130.674 19.0176L129.361 15.3535H121.391L120.037 19.0176L121.541 19.2773V21H115.84ZM122.225 13.0977H128.541L125.615 5.00391L125.451 4.55273H125.369L125.205 5.00391L122.225 13.0977ZM139.763 21V19.2773L141.991 18.8945V3.21289L139.763 2.83008V1.10742H148.636C150.085 1.10742 151.307 1.32617 152.3 1.76367C153.303 2.19206 154.064 2.81641 154.583 3.63672C155.103 4.45703 155.363 5.45964 155.363 6.64453C155.363 7.8112 155.107 8.79102 154.597 9.58398C154.096 10.377 153.38 10.9785 152.45 11.3887C151.521 11.7897 150.418 12.0039 149.142 12.0312L144.685 12.1133V18.8945L146.913 19.2773V21H139.763ZM152.902 21L148.472 11.0605L151.165 11.0332L154.843 18.9902L156.224 19.2363V21H152.902ZM144.685 9.99414H148.363C149.866 9.99414 150.96 9.70703 151.644 9.13281C152.327 8.55859 152.669 7.72005 152.669 6.61719C152.669 5.56901 152.341 4.73958 151.685 4.12891C151.029 3.51823 150.012 3.21289 148.636 3.21289H144.685V9.99414ZM169.633 21.2871C168.348 21.2871 167.195 21.041 166.174 20.5488C165.153 20.0566 164.283 19.3639 163.563 18.4707C162.852 17.5684 162.305 16.502 161.922 15.2715C161.549 14.041 161.362 12.6829 161.362 11.1973V10.9102C161.362 9.43359 161.549 8.08008 161.922 6.84961C162.305 5.61003 162.852 4.53906 163.563 3.63672C164.283 2.73438 165.153 2.03711 166.174 1.54492C167.195 1.05273 168.348 0.806641 169.633 0.806641C170.991 0.806641 172.185 1.05273 173.215 1.54492C174.245 2.03711 175.107 2.73438 175.799 3.63672C176.501 4.53906 177.03 5.61003 177.385 6.84961C177.741 8.08008 177.918 9.43359 177.918 10.9102V11.1973C177.918 12.6829 177.741 14.041 177.385 15.2715C177.03 16.502 176.501 17.5684 175.799 18.4707C175.107 19.3639 174.245 20.0566 173.215 20.5488C172.185 21.041 170.991 21.2871 169.633 21.2871ZM169.633 19.0449C170.955 19.0449 172.021 18.7168 172.832 18.0605C173.653 17.4043 174.254 16.4883 174.637 15.3125C175.02 14.1276 175.211 12.7559 175.211 11.1973V10.8828C175.211 9.33333 175.015 7.97526 174.623 6.80859C174.241 5.63281 173.639 4.7168 172.819 4.06055C171.998 3.39518 170.937 3.0625 169.633 3.0625C168.439 3.0625 167.427 3.39518 166.598 4.06055C165.769 4.72591 165.14 5.64648 164.711 6.82227C164.283 7.98893 164.069 9.34245 164.069 10.8828V11.1973C164.069 12.7467 164.283 14.1139 164.711 15.2988C165.14 16.4746 165.769 17.3952 166.598 18.0605C167.427 18.7168 168.439 19.0449 169.633 19.0449Z" fill="white"/>
</svg>
